<svg width="97" height="20" viewBox="0 0 97 20" fill="none" xmlns="http://www.w3.org/2000/svg">
<path d="M8.51659 1.40772C14.1474 1.40772 18.1315 5.25898 18.1315 10.7039C18.1315 16.1222 14.1474 20 8.51659 20H0V1.40772H8.51659Z" fill="#0517C7"/>
<path d="M35.2049 12.2178C35.2049 12.6693 35.1784 13.0943 35.1252 13.5458H29.7999H24.4745C24.7933 15.1925 25.8291 16.0425 27.3962 16.0425C28.5383 16.0425 29.521 15.5378 29.9725 14.6879H34.9128C33.9035 17.9548 30.9818 20 27.3962 20C22.9075 20 19.614 16.733 19.614 12.3506C19.614 7.96812 22.8809 4.72775 27.3962 4.72775C32.0177 4.72775 35.2049 8.02124 35.2049 12.2178ZM27.3962 8.60557C25.9619 8.60557 24.9526 9.37582 24.5542 10.8101H30.3444C29.9194 9.37582 28.8836 8.60557 27.3962 8.60557Z" fill="#0517C7"/>
<path d="M45.7716 5.17928H51.0306L45.267 19.5219H40.8049L34.9616 5.17928H40.3799L43.0478 13.5458L45.7716 5.17928Z" fill="#0517C7"/>
<path d="M52.5003 19.5219V0H57.4405V19.5219H52.5003Z" fill="#0517C7"/>
<path d="M59.213 4.00009V3.68436e-05H64.1001V4.00009H59.213ZM59.213 19.5219V5.17928H64.1532V19.5219H59.213Z" fill="#0517C7"/>
<path d="M72.9862 5.17928C78.109 5.17928 80.109 7.17928 80.109 12.1793V19.5219H75.1687V11.3427C75.1687 8.97741 72.9862 8.97741 72.9862 8.97741H70.545V19.5219H65.9257V5.17928H72.9862Z" fill="#0517C7"/>
<path d="M96.7631 12.2178C96.7631 12.6693 96.7366 13.0943 96.6834 13.5458H86.0327C86.3514 15.1925 87.3873 16.0425 88.9544 16.0425C90.0965 16.0425 91.0792 15.5378 91.5307 14.6879H96.471C95.4617 17.9548 92.54 20 88.9544 20C84.4657 20 81.1722 16.733 81.1722 12.3506C81.1722 7.96812 84.4391 4.72775 88.9544 4.72775C93.5759 4.72775 96.7631 8.02124 96.7631 12.2178ZM88.9544 8.60557C87.5201 8.60557 86.5108 9.37582 86.1124 10.8101H91.9026C91.4776 9.37582 90.4417 8.60557 88.9544 8.60557Z" fill="#0517C7"/>
<path d="M6.89795 6.66797L11.0738 10.6729L6.89795 14.668" stroke="white" stroke-width="2" stroke-linecap="round" stroke-linejoin="round"/>
</svg>
