<svg width="128" height="128" viewBox="0 0 128 128" fill="none" xmlns="http://www.w3.org/2000/svg">
<rect width="128" height="128" fill="#8336E8"/>
<path d="M21.0659 65.3198C20.8705 64.9645 21.1329 64.5333 21.5446 64.5333H37.7051C37.9085 64.5333 38.0949 64.6446 38.1883 64.8218L44.1383 76.1115C44.2317 76.2887 44.4181 76.4 44.6215 76.4H83.1189C83.3205 76.4 83.5056 76.2906 83.5998 76.1157L89.6837 64.8176C89.7779 64.6427 89.963 64.5333 90.1646 64.5333H106.455C106.869 64.5333 107.131 64.9684 106.932 65.3239L100.869 76.1239C100.773 76.2942 100.59 76.4 100.392 76.4H85.4092C85.2059 76.4 85.0196 76.5112 84.9262 76.6883L79.1121 87.7117C79.0187 87.8888 78.8324 88 78.6291 88H49.3733C49.1735 88 48.9898 87.8926 48.8948 87.7202L42.813 76.6798C42.718 76.5074 42.5343 76.4 42.3345 76.4H27.484C27.2841 76.4 27.1003 76.2924 27.0054 76.1198L21.0659 65.3198Z" fill="white"/>
<path d="M44.9541 40.2883C45.0475 40.1112 45.2338 40 45.4371 40H81.7561C81.9594 40 82.1458 40.1112 82.2392 40.2883L89.8342 54.6883C90.0214 55.0433 89.7587 55.4667 89.3511 55.4667H37.8421C37.4346 55.4667 37.1718 55.0433 37.3591 54.6883L44.9541 40.2883Z" fill="white"/>
</svg>
