<svg width="80" height="80" viewBox="0 0 80 80" fill="none" xmlns="http://www.w3.org/2000/svg">
<path d="M26.667 53.333H53.3337V79.9998C38.6226 79.9998 26.667 68.0442 26.667 53.333Z" fill="white"/>
<path d="M0 53.333H26.6667V79.9998C11.9556 79.9998 0 68.0442 0 53.333Z" fill="white"/>
<path d="M26.6667 26.6672V53.334H0C0 38.5784 11.9556 26.6672 26.6667 26.6672Z" fill="white"/>
<path d="M53.3335 79.9998V53.333H80.0002C80.0002 68.0442 68.0446 79.9998 53.3335 79.9998Z" fill="white"/>
<path d="M26.6667 0V26.6668H0C0 11.9112 11.9556 0 26.6667 0Z" fill="white"/>
<path d="M53.3335 53.334V26.6672H80.0002C80.0002 41.3784 68.0446 53.334 53.3335 53.334Z" fill="white"/>
<path d="M53.3337 26.6668H26.667V0C41.3781 0 53.3337 11.9112 53.3337 26.6668Z" fill="white"/>
<path d="M80.0002 26.6668H53.3335V0C68.0446 0 80.0002 11.9112 80.0002 26.6668Z" fill="white"/>
</svg>
