<svg width="32" height="32" viewBox="0 0 32 32" fill="none" xmlns="http://www.w3.org/2000/svg">
<path d="M14.5611 0C24.1883 0 31 6.62857 31 16C31 25.3257 24.1883 32 14.5611 32H3.41947C1.53095 32 0 30.4588 0 28.5577V3.44229C0 1.54116 1.53095 0 3.41947 0H14.5611Z" fill="#0517C7"/>
<path d="M10.3851 9.94354L16.5691 15.946L10.4115 21.8419C9.35887 22.8498 10.0675 24.6349 11.5203 24.6349C11.9339 24.6349 12.3317 24.4745 12.6309 24.187L19.9224 17.1828C20.6249 16.5079 20.6287 15.3801 19.9307 14.7005L12.6357 7.59752C12.3336 7.30338 11.9297 7.13895 11.5095 7.13895C10.052 7.13895 9.33592 8.92517 10.3851 9.94354Z" fill="white"/>
</svg>
