<svg width="32" height="32" viewBox="0 0 32 32" fill="none" xmlns="http://www.w3.org/2000/svg">
<path d="M15.5611 0C25.1883 0 32 6.62857 32 16C32 25.3257 25.1883 32 15.5611 32H4.41947C2.53095 32 1 30.4588 1 28.5577V3.44229C1 1.54116 2.53095 0 4.41947 0H15.5611Z" fill="#0D23F2"/>
<path d="M11.3851 9.94354L17.5691 15.946L11.4115 21.8419C10.3589 22.8498 11.0675 24.6349 12.5203 24.6349C12.9339 24.6349 13.3317 24.4745 13.6309 24.187L20.9224 17.1828C21.6249 16.5079 21.6287 15.3801 20.9307 14.7005L13.6357 7.59752C13.3336 7.30338 12.9297 7.13895 12.5095 7.13895C11.052 7.13895 10.3359 8.92517 11.3851 9.94354Z" fill="white"/>
</svg>
