<svg width="97" height="20" viewBox="0 0 97 20" fill="none" xmlns="http://www.w3.org/2000/svg">
<path d="M8.51659 1.40772C14.1474 1.40772 18.1315 5.25898 18.1315 10.7039C18.1315 16.1222 14.1474 20 8.51659 20H2C0.895431 20 0 19.1046 0 18V3.40772C0 2.30315 0.89543 1.40772 2 1.40772H8.51659Z" fill="white"/>
<path d="M35.2049 12.2178C35.2049 12.6693 35.1784 13.0943 35.1252 13.5458H24.4745C24.7933 15.1925 25.8291 16.0425 27.3962 16.0425C28.5383 16.0425 29.521 15.5378 29.9725 14.6879H34.9128C33.9035 17.9548 30.9818 20 27.3962 20C22.9075 20 19.614 16.733 19.614 12.3506C19.614 7.96812 22.8809 4.72775 27.3962 4.72775C32.0177 4.72775 35.2049 8.02124 35.2049 12.2178ZM27.3962 8.60557C25.9619 8.60557 24.9526 9.37582 24.5542 10.8101H30.3444C29.9194 9.37582 28.8836 8.60557 27.3962 8.60557Z" fill="white"/>
<path d="M45.7716 5.17928H51.0306L45.267 19.5219H40.8049L34.9616 5.17928H40.3799L43.0478 13.5458L45.7716 5.17928Z" fill="white"/>
<path d="M52.5003 19.5219V0H57.4405V19.5219H52.5003Z" fill="white"/>
<path d="M59.213 4.00009V3.68436e-05H64.1001V4.00009H59.213ZM59.213 19.5219V5.81066H64.1532V19.5219H59.213Z" fill="white"/>
<path d="M96.7631 12.2178C96.7631 12.6693 96.7366 13.0943 96.6834 13.5458H86.0327C86.3514 15.1925 87.3873 16.0425 88.9544 16.0425C90.0965 16.0425 91.0792 15.5378 91.5307 14.6879H96.471C95.4617 17.9548 92.54 20 88.9544 20C84.4657 20 81.1722 16.733 81.1722 12.3506C81.1722 7.96812 84.4391 4.72775 88.9544 4.72775C93.5759 4.72775 96.7631 8.02124 96.7631 12.2178ZM88.9544 8.60557C87.5201 8.60557 86.5108 9.37582 86.1124 10.8101H91.9026C91.4776 9.37582 90.4417 8.60557 88.9544 8.60557Z" fill="white"/>
<path d="M65.8359 19.5211V5.81066H70.3054V7.04757C71.7705 6.06276 72.715 5.52109 74.5608 5.52109C77.5698 5.52109 79.2694 7.44735 79.2694 10.6955V19.5211H74.8126V11.6524C74.8126 10.0786 74.0698 9.15958 72.6093 9.15958C71.1867 9.15958 70.3054 10.2171 70.3054 11.7405V19.5211H65.8359Z" fill="white"/>
<path d="M6.07409 7.185L9.69102 10.6725L6.08955 14.098C5.47387 14.6836 5.88834 15.7208 6.73804 15.7208C6.97997 15.7208 7.21261 15.6276 7.38764 15.4606L11.6523 11.3911C12.0632 10.999 12.0654 10.3437 11.6572 9.94883L7.39042 5.82194C7.21373 5.65105 6.97754 5.55551 6.73172 5.55551C5.87929 5.55551 5.46045 6.59332 6.07409 7.185Z" fill="#0517C7"/>
</svg>
